<svg xmlns="http://www.w3.org/2000/svg" width="64" height="64" viewBox="0 0 64 64" fill="none">
<path d="M32.5792 55.8691C35.7301 53.353 50.6671 40.6697 50.6671 26.346C50.6671 16.0365 42.3096 7.67896 32.0001 7.67896C21.6905 7.67896 13.333 16.0365 13.333 26.346C13.333 40.6697 28.27 53.353 31.4209 55.8691C31.7674 56.1458 32.2327 56.1458 32.5792 55.8691Z" fill="#F10000" stroke="#F10000" stroke-linecap="round" stroke-linejoin="round"/>
<path d="M32.0002 32.8956C36.2228 32.8956 39.6459 29.4725 39.6459 25.2499C39.6459 21.0273 36.2228 17.6042 32.0002 17.6042C27.7776 17.6042 24.3545 21.0273 24.3545 25.2499C24.3545 29.4725 27.7776 32.8956 32.0002 32.8956Z" fill="white" stroke="white" stroke-width="1.5" stroke-linecap="round" stroke-linejoin="round"/>
</svg>