<svg xmlns="http://www.w3.org/2000/svg" width="20" height="21" viewBox="0 0 20 21" fill="none">
<g clip-path="url(#clip0_2322_10290)">
<path d="M10.0003 2.16699C14.602 2.16699 18.3337 5.48199 18.3337 9.57449C18.333 10.8022 17.845 11.9794 16.9768 12.8474C16.1086 13.7154 14.9313 14.2032 13.7037 14.2037H12.0653C11.297 14.2037 10.6762 14.8245 10.6762 15.5928C10.6762 15.9445 10.8153 16.2687 11.0278 16.5095C11.2503 16.7595 11.3895 17.0837 11.3895 17.4445C11.3895 18.2137 10.7503 18.8337 10.0003 18.8337C5.39866 18.8337 1.66699 15.102 1.66699 10.5003C1.66699 5.89866 5.39866 2.16699 10.0003 2.16699ZM9.00949 15.5928C9.00916 15.1914 9.08798 14.7939 9.24143 14.423C9.39489 14.0521 9.61997 13.7151 9.90379 13.4313C10.1876 13.1475 10.5246 12.9224 10.8955 12.7689C11.2664 12.6155 11.6639 12.5367 12.0653 12.537H13.7037C14.4892 12.5366 15.2424 12.2244 15.798 11.6692C16.3536 11.1139 16.6661 10.3608 16.667 9.57533C16.667 6.44949 13.7237 3.83366 10.0003 3.83366C8.27997 3.83209 6.62561 4.49563 5.38314 5.68554C4.14067 6.87545 3.40629 8.4996 3.33354 10.2184C3.26079 11.9372 3.85531 13.6176 4.9928 14.9083C6.13028 16.1989 7.72266 16.9999 9.43699 17.1437C9.15796 16.6747 9.0103 16.1393 9.00949 15.5937V15.5928ZM6.25033 10.5003C5.9188 10.5003 5.60086 10.3686 5.36644 10.1342C5.13202 9.89979 5.00033 9.58185 5.00033 9.25033C5.00033 8.9188 5.13202 8.60086 5.36644 8.36644C5.60086 8.13202 5.9188 8.00033 6.25033 8.00033C6.58185 8.00033 6.89979 8.13202 7.13421 8.36644C7.36863 8.60086 7.50033 8.9188 7.50033 9.25033C7.50033 9.58185 7.36863 9.89979 7.13421 10.1342C6.89979 10.3686 6.58185 10.5003 6.25033 10.5003ZM13.7503 10.5003C13.4188 10.5003 13.1009 10.3686 12.8664 10.1342C12.632 9.89979 12.5003 9.58185 12.5003 9.25033C12.5003 8.9188 12.632 8.60086 12.8664 8.36644C13.1009 8.13202 13.4188 8.00033 13.7503 8.00033C14.0818 8.00033 14.3998 8.13202 14.6342 8.36644C14.8686 8.60086 15.0003 8.9188 15.0003 9.25033C15.0003 9.58185 14.8686 9.89979 14.6342 10.1342C14.3998 10.3686 14.0818 10.5003 13.7503 10.5003ZM10.0003 8.00033C9.66881 8.00033 9.35086 7.86863 9.11644 7.63421C8.88202 7.39979 8.75033 7.08185 8.75033 6.75033C8.75033 6.4188 8.88202 6.10086 9.11644 5.86644C9.35086 5.63202 9.66881 5.50033 10.0003 5.50033C10.3318 5.50033 10.6498 5.63202 10.8842 5.86644C11.1186 6.10086 11.2503 6.4188 11.2503 6.75033C11.2503 7.08185 11.1186 7.39979 10.8842 7.63421C10.6498 7.86863 10.3318 8.00033 10.0003 8.00033Z" fill="#91969E"/>
</g>
<defs>
<clipPath id="clip0_2322_10290">
<rect width="20" height="20" fill="white" transform="translate(0 0.5)"/>
</clipPath>
</defs>
</svg>