<svg width="24" height="25" viewBox="0 0 24 25" fill="none" xmlns="http://www.w3.org/2000/svg">
<path d="M17.5416 8.86357L13.9057 12.4999L17.5416 16.136C18.0824 16.677 18.0824 17.5534 17.5416 18.0945C17.2714 18.3647 16.9171 18.4999 16.563 18.4999C16.2083 18.4999 15.854 18.3649 15.584 18.0945L11.9473 14.4579L8.31083 18.0944C8.04064 18.3647 7.68633 18.4999 7.33191 18.4999C6.97759 18.4999 6.62352 18.3649 6.35309 18.0944C5.81227 17.5536 5.81227 16.6772 6.35309 16.136L9.98891 12.4998L6.35288 8.86357C5.81206 8.32274 5.81206 7.44613 6.35288 6.90531C6.89361 6.3649 7.76969 6.3649 8.31062 6.90531L11.9472 10.5416L15.5836 6.90531C16.1246 6.3649 17.0008 6.3649 17.5414 6.90531C18.0824 7.44613 18.0824 8.32274 17.5416 8.86357Z" fill="#858FA4"/>
</svg>
