<svg xmlns="http://www.w3.org/2000/svg" width="26" height="19" viewBox="0 0 26 19" fill="none">
<path d="M19.6347 11.4707C17.8276 11.4707 16.3574 12.9408 16.3574 14.748C16.3574 16.5551 17.8276 18.0252 19.6347 18.0252C21.4421 18.0252 22.912 16.5551 22.912 14.748C22.912 12.9408 21.4418 11.4707 19.6347 11.4707ZM19.6347 16.3866C18.731 16.3866 17.9961 15.6517 17.9961 14.748C17.9961 13.8443 18.731 13.1093 19.6347 13.1093C20.5384 13.1093 21.2733 13.8443 21.2733 14.748C21.2733 15.6517 20.5384 16.3866 19.6347 16.3866Z" fill="#CB11AB"/>
<path d="M8.43743 11.4707C6.6303 11.4707 5.16016 12.9408 5.16016 14.748C5.16016 16.5551 6.6303 18.0252 8.43743 18.0252C10.2446 18.0252 11.7147 16.5551 11.7147 14.748C11.7147 12.9408 10.2446 11.4707 8.43743 11.4707ZM8.43743 16.3866C7.53374 16.3866 6.79879 15.6517 6.79879 14.748C6.79879 13.8443 7.53374 13.1093 8.43743 13.1093C9.34087 13.1093 10.0761 13.8443 10.0761 14.748C10.0761 15.6517 9.34112 16.3866 8.43743 16.3866Z" fill="#CB11AB"/>
<path d="M21.8442 2.08986C21.7049 1.8132 21.4217 1.63867 21.1119 1.63867H16.7969V3.27731H20.6067L22.8377 7.71471L24.3021 6.97839L21.8442 2.08986Z" fill="#CB11AB"/>
<path d="M17.178 13.9551H10.9785V15.5937H17.178V13.9551Z" fill="#CB11AB"/>
<path d="M5.98181 13.9551H3.14156C2.689 13.9551 2.32227 14.3219 2.32227 14.7744C2.32227 15.2269 2.68905 15.5937 3.14156 15.5937H5.98186C6.43442 15.5937 6.80116 15.2269 6.80116 14.7744C6.80116 14.3218 6.43437 13.9551 5.98181 13.9551Z" fill="#CB11AB"/>
<path d="M25.8284 8.94692L24.2168 6.87131C24.062 6.67139 23.823 6.55449 23.5698 6.55449H17.6161V0.819293C17.6161 0.366737 17.2493 0 16.7968 0H3.14156C2.689 0 2.32227 0.366787 2.32227 0.819293C2.32227 1.2718 2.68905 1.63859 3.14156 1.63859H15.9775V7.37379C15.9775 7.82634 16.3443 8.19308 16.7968 8.19308H23.1686L24.3618 9.7301V13.9556H22.095C21.6425 13.9556 21.2757 14.3224 21.2757 14.7749C21.2757 15.2275 21.6425 15.5942 22.095 15.5942H25.1811C25.6337 15.5942 26.0004 15.2274 26.0005 14.7749V9.44944C26.0005 9.26755 25.9398 9.09057 25.8284 8.94692Z" fill="#CB11AB"/>
<path d="M5.92801 9.80469H2.15914C1.70658 9.80469 1.33984 10.1715 1.33984 10.624C1.33984 11.0765 1.70663 11.4433 2.15914 11.4433H5.92796C6.38052 11.4433 6.74726 11.0765 6.74726 10.624C6.74731 10.1715 6.38052 9.80469 5.92801 9.80469Z" fill="#CB11AB"/>
<path d="M7.8108 6.58179H0.819293C0.366788 6.58179 0 6.94857 0 7.40113C0 7.85369 0.366788 8.22042 0.819293 8.22042H7.8108C8.26336 8.22042 8.6301 7.85364 8.6301 7.40113C8.6301 6.94863 8.26336 6.58179 7.8108 6.58179Z" fill="#CB11AB"/>
<path d="M9.15065 3.35938H2.15914C1.70658 3.35938 1.33984 3.72616 1.33984 4.17867C1.33984 4.63122 1.70663 4.99796 2.15914 4.99796H9.15065C9.6032 4.99796 9.96994 4.63117 9.96994 4.17867C9.96999 3.72616 9.6032 3.35938 9.15065 3.35938Z" fill="#CB11AB"/>
</svg>