<svg xmlns="http://www.w3.org/2000/svg" width="39" height="12" viewBox="0 0 39 12" fill="none">
  <path d="M15.5157 0.244629L13.5845 11.5779H16.6732L18.606 0.244629H15.5157Z" fill="#3665C8"/>
  <path d="M10.9946 0.257266L7.96946 7.9862L7.64692 6.81919C7.05031 5.41306 5.3566 3.39364 3.36816 2.12098L6.13434 11.5722L9.4026 11.5667L14.2668 0.254883L10.9946 0.257266Z" fill="#3665C8"/>
  <path d="M6.4743 1.0682C6.29476 0.377844 5.77441 0.172088 5.12855 0.147461H0.33977L0.300049 0.373077C4.02668 1.27713 6.49257 3.45543 7.51579 6.07464L6.4743 1.0682Z" fill="#3665C8"/>
  <path d="M24.8663 2.41718C25.8768 2.4013 26.6092 2.62214 27.178 2.85094L27.4569 2.98202L27.8747 0.525663C27.263 0.296075 26.3042 0.0498047 25.1078 0.0498047C22.0556 0.0498047 19.9043 1.58701 19.8876 3.78994C19.8677 5.41772 21.42 6.32654 22.5926 6.86913C23.7962 7.42522 24.1997 7.77874 24.1942 8.27526C24.1846 9.03393 23.2345 9.38189 22.3471 9.38189C21.1102 9.38189 20.4532 9.21109 19.4388 8.78845L19.0408 8.60732L18.6062 11.1439C19.3291 11.4609 20.663 11.7334 22.0476 11.7477C25.2944 11.7477 27.4044 10.2287 27.4267 7.87487C27.4402 6.58711 26.6164 5.60441 24.8313 4.79807C23.7509 4.27216 23.0899 3.92261 23.0963 3.39194C23.0963 2.92085 23.6571 2.41718 24.8663 2.41718Z" fill="#3665C8"/>
  <path d="M35.8008 0.257324H33.4144C32.6732 0.257324 32.1219 0.459107 31.7962 1.19792L27.21 11.5842H30.4536C30.4536 11.5842 30.9827 10.1876 31.1026 9.88175C31.4577 9.88175 34.6092 9.88651 35.0581 9.88651C35.1502 10.2821 35.4346 11.5842 35.4346 11.5842H38.3001L35.8008 0.257324ZM31.9916 7.56203C32.2458 6.9114 33.2221 4.39467 33.2221 4.39467C33.2055 4.42566 33.474 3.73927 33.6337 3.31267L33.8418 4.28981C33.8418 4.28981 34.4336 6.99561 34.5576 7.56203H31.9916Z" fill="#3665C8"/>
</svg>