<svg width="24" height="24" viewBox="0 0 24 24" fill="none" xmlns="http://www.w3.org/2000/svg">
<path d="M16.9021 8.62716L16.9058 8.64862L16.9181 8.66658C17.5904 9.64828 17.9501 10.8103 17.9501 12.0001C17.9501 13.1899 17.5904 14.3519 16.9181 15.3336L16.9058 15.3516L16.9021 15.373L15.9021 21.143L15.9019 21.1441C15.8674 21.3571 15.7576 21.5505 15.5924 21.6893C15.4272 21.8281 15.2176 21.9029 15.0019 21.9001H15.0006L9.00063 21.9001L8.99934 21.9001C8.78362 21.9029 8.57408 21.8281 8.40888 21.6893C8.24369 21.5505 8.13384 21.3571 8.09935 21.1441L8.09916 21.143L7.09916 15.373L7.09544 15.3516L7.08314 15.3336C6.4109 14.3519 6.05117 13.1899 6.05117 12.0001C6.05117 10.8103 6.4109 9.64828 7.08314 8.66658L7.09544 8.64862L7.09916 8.62716L8.09916 2.85716L8.09916 2.85716L8.09934 2.85607C8.13384 2.64311 8.24369 2.44963 8.40888 2.31087C8.57408 2.1721 8.78362 2.0973 8.99934 2.10007V2.10008H9.00063L15.0006 2.10009L15.0019 2.10007C15.2176 2.0973 15.4272 2.1721 15.5924 2.31087C15.7576 2.44963 15.8674 2.64311 15.9019 2.85608L15.9021 2.85716L16.9021 8.62716ZM9.85063 3.90008H9.76618L9.75204 3.98333L9.31204 6.57333L9.27972 6.76359L9.45379 6.68029C10.2489 6.29979 11.1192 6.10228 12.0006 6.10228C12.8821 6.10228 13.7524 6.29979 14.5475 6.68029L14.7215 6.76359L14.6892 6.57333L14.2492 3.98333L14.2351 3.90008H14.1506H9.85063ZM14.1506 20.1001H14.2351L14.2492 20.0168L14.6892 17.4268L14.7215 17.2366L14.5475 17.3199C13.7524 17.7004 12.8821 17.8979 12.0006 17.8979C11.1192 17.8979 10.2489 17.7004 9.45379 17.3199L9.27972 17.2366L9.31204 17.4268L9.75204 20.0168L9.76618 20.1001H9.85063H14.1506ZM9.72279 15.4091C10.397 15.8596 11.1897 16.1001 12.0006 16.1001C13.088 16.1001 14.1309 15.6681 14.8998 14.8992C15.6687 14.1303 16.1006 13.0875 16.1006 12.0001C16.1006 11.1892 15.8602 10.3965 15.4097 9.72225C14.9591 9.048 14.3188 8.5225 13.5696 8.21218C12.8205 7.90186 11.9961 7.82066 11.2008 7.97886C10.4054 8.13706 9.67488 8.52755 9.10149 9.10094C8.52809 9.67434 8.13761 10.4049 7.97941 11.2002C7.82121 11.9955 7.9024 12.8199 8.21272 13.5691C8.52304 14.3183 9.04855 14.9586 9.72279 15.4091Z" fill="#91969E" fill-opacity="0.8" stroke="white" stroke-width="0.2"/>
</svg>
