<svg width="32" height="31" viewBox="0 0 32 31" fill="none" xmlns="http://www.w3.org/2000/svg">
<path fill-rule="evenodd" clip-rule="evenodd" d="M12.7046 11.2563C13.8299 10.1305 15.3564 9.49805 16.9482 9.49805C18.5399 9.49805 20.0664 10.1305 21.1916 11.2562C22.3174 12.3815 22.95 13.9082 22.95 15.4999C22.95 17.0916 22.3175 18.6181 21.1917 19.7434C21.1917 19.7435 21.1917 19.7434 21.1917 19.7434L12.3517 28.5834C12.1565 28.7787 11.8399 28.7787 11.6446 28.5834L2.80461 19.7434C0.460963 17.3998 0.460963 13.6 2.80461 11.2563C5.14826 8.91267 8.94807 8.91267 11.2917 11.2563L11.9982 11.9628L12.7046 11.2563C12.7046 11.2563 12.7046 11.2563 12.7046 11.2563ZM16.9482 10.498C15.6217 10.498 14.3496 11.0252 13.4118 11.9633L12.3517 13.0234C12.258 13.1172 12.1308 13.1699 11.9982 13.1699C11.8656 13.1699 11.7384 13.1172 11.6446 13.0234L10.5846 11.9634C8.63149 10.0103 5.46484 10.0103 3.51172 11.9634C1.55859 13.9166 1.55859 17.0832 3.51172 19.0363L11.9982 27.5228L20.4846 19.0363C21.4228 18.0986 21.95 16.8264 21.95 15.4999C21.95 14.1734 21.4229 12.9013 20.4847 11.9635C19.5469 11.0253 18.2747 10.498 16.9482 10.498Z" fill="white"/>
<path d="M12.7046 11.2563C13.8299 10.1305 15.3564 9.49805 16.9482 9.49805C18.5399 9.49805 20.0664 10.1305 21.1916 11.2562M12.7046 11.2563L11.9982 11.9628L11.2917 11.2563C8.94807 8.91267 5.14826 8.91267 2.80461 11.2563C0.460963 13.6 0.460963 17.3998 2.80461 19.7434L11.6446 28.5834C11.8399 28.7787 12.1565 28.7787 12.3517 28.5834L21.1917 19.7434M12.7046 11.2563C12.7046 11.2563 12.7046 11.2563 12.7046 11.2563ZM21.1916 11.2562C21.1916 11.2562 21.1917 11.2563 21.1916 11.2562ZM21.1916 11.2562C22.3174 12.3815 22.95 13.9082 22.95 15.4999C22.95 17.0916 22.3175 18.6181 21.1917 19.7434M21.1917 19.7434C21.1917 19.7434 21.1917 19.7435 21.1917 19.7434ZM13.4118 11.9633C14.3496 11.0252 15.6217 10.498 16.9482 10.498C18.2747 10.498 19.5469 11.0253 20.4847 11.9635C21.4229 12.9013 21.95 14.1734 21.95 15.4999C21.95 16.8264 21.4228 18.0986 20.4846 19.0363L11.9982 27.5228L3.51172 19.0363C1.55859 17.0832 1.55859 13.9166 3.51172 11.9634C5.46484 10.0103 8.63149 10.0103 10.5846 11.9634L11.6446 13.0234C11.7384 13.1172 11.8656 13.1699 11.9982 13.1699C12.1308 13.1699 12.258 13.1172 12.3517 13.0234L13.4118 11.9633Z" stroke="white" stroke-linecap="round" stroke-linejoin="round"/>
</svg>
